<svg id="Layer_1" data-name="Layer 1" xmlns="http://www.w3.org/2000/svg" xmlns:xlink="http://www.w3.org/1999/xlink" viewBox="0 0 119.12 40.06"><defs><style>.cls-1,.cls-5{fill:#420259;}.cls-1{stroke:#420259;stroke-width:3.29px;}.cls-1,.cls-2,.cls-4{stroke-miterlimit:10;}.cls-2{stroke:#000;stroke-width:5.6px;fill:url(#linear-gradient);}.cls-3{fill:#231f20;}.cls-4{fill:none;stroke-width:7px;stroke:url(#New_Gradient_Swatch);}</style><linearGradient id="linear-gradient" x1="34.47" y1="24.63" x2="114.72" y2="24.63" gradientTransform="translate(1.28 0.93) rotate(-0.09)" gradientUnits="userSpaceOnUse"><stop offset="0" stop-color="#fff"/><stop offset="1"/></linearGradient><linearGradient id="New_Gradient_Swatch" x1="660.66" y1="408.2" x2="749.34" y2="408.2" gradientTransform="translate(-631.04 -381.63) rotate(-0.09)" gradientUnits="userSpaceOnUse"><stop offset="0.01" stop-color="#fcb922"/><stop offset="0.08" stop-color="#f98d4a"/><stop offset="0.11" stop-color="#f77461"/><stop offset="0.14" stop-color="#f56173"/><stop offset="0.17" stop-color="#f4567e"/><stop offset="0.21" stop-color="#f45281"/><stop offset="0.38" stop-color="#c00f74"/><stop offset="0.67" stop-color="#680086"/><stop offset="1" stop-color="#1a0a3b"/></linearGradient></defs><title>Distance</title><circle class="cls-1" cx="21.67" cy="21.92" r="16.52" transform="translate(-3.54 -3.73) rotate(-0.09)"/><path class="cls-2" d="M116,20.61c-5.47.12-21.29-.94-25.2,5.6-3.76,6.28-5.36,13.2-9.1,13.21-3.93,0-7.07-7.17-10.11-14.1-3.39-7.56-6.53-14.71-11.08-14.7s-7.65,7.14-11,14.69c-3,7-6.19,14.15-10.15,14.16a6.65,6.65,0,0,1-2.74-.68l-.85.61a8.09,8.09,0,0,0,3.59.94c4.53,0,7.64-7.13,10.9-14.68,3.09-7,6.24-14.17,10.21-14.17s7.15,7.21,10.21,14.19c3.3,7.56,6.42,14.62,10.95,14.62,4.32,0,5.36-7.62,9.9-13.75,4.26-5.75,19.56-4.95,24.47-5.08Z" transform="translate(-3.51 -3.76)"/><path class="cls-3" d="M116,20.61c-5.47.12-21.29-.94-25.2,5.6-3.76,6.28-5.36,13.2-9.1,13.21-3.93,0-7.07-7.17-10.11-14.1-3.39-7.56-6.53-14.71-11.08-14.7s-7.65,7.14-11,14.69c-3,7-6.19,14.15-10.15,14.16a6.65,6.65,0,0,1-2.74-.68l-.85.61a8.09,8.09,0,0,0,3.59.94c4.53,0,7.64-7.13,10.9-14.68,3.09-7,6.24-14.17,10.21-14.17s7.15,7.21,10.21,14.19c3.3,7.56,6.42,14.62,10.95,14.62,4.32,0,5.36-7.62,9.9-13.75,4.26-5.75,19.56-4.95,24.47-5.08Z" transform="translate(-3.51 -3.76)"/><path class="cls-3" d="M116,20.61c-5.47.12-21.29-.94-25.2,5.6-3.76,6.28-5.36,13.2-9.1,13.21-3.93,0-7.07-7.17-10.11-14.1-3.39-7.56-6.53-14.71-11.08-14.7s-7.65,7.14-11,14.69c-3,7-6.19,14.15-10.15,14.16a6.65,6.65,0,0,1-2.74-.68l-.85.61a8.09,8.09,0,0,0,3.59.94c4.53,0,7.64-7.13,10.9-14.68,3.09-7,6.24-14.17,10.21-14.17s7.15,7.21,10.21,14.19c3.3,7.56,6.42,14.62,10.95,14.62,4.32,0,5.36-7.62,9.9-13.75,4.26-5.75,19.56-4.95,24.47-5.08Z" transform="translate(-3.51 -3.76)"/><path class="cls-3" d="M116,20.61c-5.47.12-21.29-.94-25.2,5.6-3.76,6.28-5.36,13.2-9.1,13.21-3.93,0-7.07-7.17-10.11-14.1-3.39-7.56-6.53-14.71-11.08-14.7s-7.65,7.14-11,14.69c-3,7-6.19,14.15-10.15,14.16a6.65,6.65,0,0,1-2.74-.68l-.85.61a8.09,8.09,0,0,0,3.59.94c4.53,0,7.64-7.13,10.9-14.68,3.09-7,6.24-14.17,10.21-14.17s7.15,7.21,10.21,14.19c3.3,7.56,6.42,14.62,10.95,14.62,4.32,0,5.36-7.62,9.9-13.75,4.26-5.75,19.56-4.95,24.47-5.08Z" transform="translate(-3.51 -3.76)"/><path class="cls-3" d="M116,20.61c-5.47.12-21.29-.94-25.2,5.6-3.76,6.28-5.36,13.2-9.1,13.21-3.93,0-7.07-7.17-10.11-14.1-3.39-7.56-6.53-14.71-11.08-14.7s-7.65,7.14-11,14.69c-3,7-6.19,14.15-10.15,14.16a6.65,6.65,0,0,1-2.74-.68l-.85.61a8.09,8.09,0,0,0,3.59.94c4.53,0,7.64-7.13,10.9-14.68,3.09-7,6.24-14.17,10.21-14.17s7.15,7.21,10.21,14.19c3.3,7.56,6.42,14.62,10.95,14.62,4.32,0,5.36-7.62,9.9-13.75,4.26-5.75,19.56-4.95,24.47-5.08Z" transform="translate(-3.51 -3.76)"/><path class="cls-4" d="M116,20.61c-5.47.12-21.29-.94-25.2,5.6-3.76,6.28-5.36,13.2-9.1,13.21-3.93,0-7.07-7.17-10.11-14.1-3.39-7.56-6.53-14.71-11.08-14.7s-7.65,7.14-11,14.69c-3,7-6.19,14.15-10.15,14.16a6.65,6.65,0,0,1-2.74-.68l-.85.61a8.09,8.09,0,0,0,3.59.94c4.53,0,7.64-7.13,10.9-14.68,3.09-7,6.24-14.17,10.21-14.17s7.15,7.21,10.21,14.19c3.3,7.56,6.42,14.62,10.95,14.62,4.32,0,5.36-7.62,9.9-13.75,4.26-5.75,19.56-4.95,24.47-5.08Z" transform="translate(-3.51 -3.76)"/><path class="cls-5" d="M103.09,6.72a1.31,1.31,0,0,1,.65-1,2.27,2.27,0,0,1,2.61.18l15.84,14.4a1.16,1.16,0,0,1,0,1.8L106.41,36.51a2.28,2.28,0,0,1-2.61.18c-.42-.27-.71-1.58-.73-2V33.19l0-23Z" transform="translate(-3.51 -3.76)"/></svg>