<svg id="Layer_1" data-name="Layer 1" xmlns="http://www.w3.org/2000/svg" xmlns:xlink="http://www.w3.org/1999/xlink" viewBox="0 0 67 65.64"><defs><style>.cls-1{stroke:#420259;stroke-miterlimit:10;stroke-width:7px;fill:url(#New_Gradient_Swatch);}</style><linearGradient id="New_Gradient_Swatch" x1="4.41" y1="33.32" x2="64.41" y2="33.32" gradientUnits="userSpaceOnUse"><stop offset="0.01" stop-color="#fcb922"/><stop offset="0.08" stop-color="#f98d4a"/><stop offset="0.11" stop-color="#f77461"/><stop offset="0.14" stop-color="#f56173"/><stop offset="0.17" stop-color="#f4567e"/><stop offset="0.21" stop-color="#f45281"/><stop offset="0.38" stop-color="#c00f74"/><stop offset="0.67" stop-color="#680086"/><stop offset="1" stop-color="#1a0a3b"/></linearGradient></defs><title>Points</title><path class="cls-1" d="M34.41,56.18c4.4,0,9.35,8.08,13.32,6.17s.73-10.82,3.48-14.26,12.15-2.27,13.12-6.57-8-7.32-9-11.61S61.15,19,58.41,15.55s-10.71,1.69-14.68-.22S38.81,4,34.41,4s-5.35,9.42-9.32,11.34-11.93-3.22-14.68.22,4,10.06,3.05,14.36-10,7.32-9,11.61,10.38,3.13,13.12,6.57-.49,12.35,3.48,14.26S30,56.18,34.4,56.18Z" transform="translate(-0.91 -0.5)"/></svg>