<?xml version="1.0" encoding="utf-8"?>
<!-- Generator: Adobe Illustrator 21.0.0, SVG Export Plug-In . SVG Version: 6.00 Build 0)  -->
<svg version="1.1" id="Layer_1" xmlns="http://www.w3.org/2000/svg" xmlns:xlink="http://www.w3.org/1999/xlink" x="0px" y="0px"
	 viewBox="0 0 67 65.6" style="enable-background:new 0 0 67 65.6;" xml:space="preserve">
<style type="text/css">
	.st0{fill:url(#SVGID_1_);stroke:#420259;stroke-width:7;stroke-miterlimit:10;}
	.st1{fill:#FFDE17;stroke:#FFDE17;stroke-width:1.6543;stroke-miterlimit:10;}
</style>
<title>Points</title>
<radialGradient id="SVGID_1_" cx="33.5" cy="33.3556" r="29.6626" gradientTransform="matrix(1 0 0 -1 0 66)" gradientUnits="userSpaceOnUse">
	<stop  offset="1.422276e-02" style="stop-color:#FCB922"/>
	<stop  offset="0.4365" style="stop-color:#F77461"/>
	<stop  offset="0.7325" style="stop-color:#F45281"/>
</radialGradient>
<path class="st0" d="M33.5,55.5c4.4,0,9.4,8.1,13.3,6.2c4-1.9,0.7-10.8,3.5-14.3c2.7-3.4,12.1-2.3,13.1-6.6s-8-7.3-9-11.6
	s5.8-10.9,3.1-14.4c-2.7-3.4-10.7,1.7-14.7-0.2S37.9,3.3,33.5,3.3s-5.4,9.4-9.3,11.3c-4,1.9-11.9-3.2-14.7,0.2
	c-2.7,3.4,4,10.1,3.1,14.4c-1,4.3-10,7.3-9,11.6s10.4,3.1,13.1,6.6c2.7,3.4-0.5,12.3,3.5,14.3C24.1,63.6,29.1,55.5,33.5,55.5
	L33.5,55.5z"/>
<polygon class="st1" points="33.3,22.8 36.6,29.6 44,30.6 38.6,35.9 39.9,43.3 33.3,39.8 26.6,43.3 27.9,35.9 22.5,30.6 29.9,29.6 
	"/>
</svg>
