<svg id="Layer_1" data-name="Layer 1" xmlns="http://www.w3.org/2000/svg" xmlns:xlink="http://www.w3.org/1999/xlink" viewBox="0 0 70.33 70.33"><defs><style>.cls-1{fill:#420259;stroke-width:4.02px;stroke:url(#linear-gradient);}.cls-1,.cls-2{stroke-miterlimit:10;}.cls-2{stroke-width:2.4px;fill:url(#linear-gradient-2);stroke:url(#linear-gradient-3);}</style><linearGradient id="linear-gradient" x1="3.77" y1="37.16" x2="74.1" y2="37.16" gradientUnits="userSpaceOnUse"><stop offset="0.01" stop-color="#fcb922"/><stop offset="0.08" stop-color="#f98d4a"/><stop offset="0.11" stop-color="#f77461"/><stop offset="0.14" stop-color="#f56173"/><stop offset="0.17" stop-color="#f4567e"/><stop offset="0.21" stop-color="#f45281"/><stop offset="0.38" stop-color="#c00f74"/></linearGradient><linearGradient id="linear-gradient-2" x1="35.73" y1="29.43" x2="58.84" y2="29.43" xlink:href="#linear-gradient"/><linearGradient id="linear-gradient-3" x1="34.53" y1="29.43" x2="60.04" y2="29.43" xlink:href="#linear-gradient"/></defs><title>Time</title><path class="cls-1" d="M38.94,4A33.16,33.16,0,1,0,72.09,37.16,33.16,33.16,0,0,0,38.94,4Z" transform="translate(-3.77 -1.99)"/><path class="cls-2" d="M37.74,16.87a2,2,0,0,1,2,2V38H56.83a2,2,0,1,1,0,4H37.74a2,2,0,0,1-2-2V18.88A2,2,0,0,1,37.74,16.87Z" transform="translate(-3.77 -1.99)"/></svg>