<?xml version="1.0" encoding="utf-8"?>
<!-- Generator: Adobe Illustrator 21.0.0, SVG Export Plug-In . SVG Version: 6.00 Build 0)  -->
<svg version="1.1" id="Layer_1" xmlns="http://www.w3.org/2000/svg" xmlns:xlink="http://www.w3.org/1999/xlink" x="0px" y="0px"
	 viewBox="0 0 125 46" style="enable-background:new 0 0 125 46;" xml:space="preserve">
<style type="text/css">
	.st0{fill-rule:evenodd;clip-rule:evenodd;fill:#F206DC;stroke:#F206DC;stroke-width:3.2877;stroke-miterlimit:10;}
	.st1{fill:url(#SVGID_1_);stroke:#000000;stroke-width:5.6029;stroke-miterlimit:10;}
	.st2{fill:#231F20;}
	.st3{fill:none;stroke:url(#SVGID_2_);stroke-width:7;stroke-miterlimit:10;}
	.st4{fill:#F206DC;}
</style>
<g>
	
		<ellipse transform="matrix(1 -1.600271e-03 1.600271e-03 1 -3.435058e-02 3.201343e-02)" class="st0" cx="20" cy="21.5" rx="16.5" ry="16.5"/>
	<g>
		<g>
			
				<linearGradient id="SVGID_1_" gradientUnits="userSpaceOnUse" x1="33.6156" y1="22.9471" x2="113.864" y2="22.9471" gradientTransform="matrix(1 -1.600271e-03 1.600271e-03 1 0.4467 2.1648)">
				<stop  offset="0" style="stop-color:#FFFFFF"/>
				<stop  offset="1" style="stop-color:#000000"/>
			</linearGradient>
			<path class="st1" d="M114.3,20.2c-5.5,0.1-21.3-0.9-25.2,5.6C85.3,32,83.7,39,80,39c-3.9,0-7.1-7.2-10.1-14.1
				c-3.4-7.6-6.5-14.7-11.1-14.7c-4.5,0-7.7,7.1-11,14.7c-3,7-6.2,14.2-10.2,14.2c-0.9,0-1.8-0.2-2.7-0.7c-0.3,0.2-0.6,0.4-0.9,0.6
				c1.2,0.6,2.4,0.9,3.6,0.9c4.5,0,7.6-7.1,10.9-14.7c3.1-7,6.2-14.2,10.2-14.2c4,0,7.1,7.2,10.2,14.2c3.3,7.6,6.4,14.6,10.9,14.6
				c4.3,0,5.4-7.6,9.9-13.7c4.3-5.7,19.6-4.9,24.5-5.1L114.3,20.2z"/>
		</g>
		<g>
			<path class="st2" d="M114.3,20.2c-5.5,0.1-21.3-0.9-25.2,5.6C85.3,32,83.7,39,80,39c-3.9,0-7.1-7.2-10.1-14.1
				c-3.4-7.6-6.5-14.7-11.1-14.7c-4.5,0-7.7,7.1-11,14.7c-3,7-6.2,14.2-10.2,14.2c-0.9,0-1.8-0.2-2.7-0.7c-0.3,0.2-0.6,0.4-0.9,0.6
				c1.2,0.6,2.4,0.9,3.6,0.9c4.5,0,7.6-7.1,10.9-14.7c3.1-7,6.2-14.2,10.2-14.2c4,0,7.1,7.2,10.2,14.2c3.3,7.6,6.4,14.6,10.9,14.6
				c4.3,0,5.4-7.6,9.9-13.7c4.3-5.7,19.6-4.9,24.5-5.1L114.3,20.2z"/>
		</g>
		<g>
			<path class="st2" d="M114.3,20.2c-5.5,0.1-21.3-0.9-25.2,5.6C85.3,32,83.7,39,80,39c-3.9,0-7.1-7.2-10.1-14.1
				c-3.4-7.6-6.5-14.7-11.1-14.7c-4.5,0-7.7,7.1-11,14.7c-3,7-6.2,14.2-10.2,14.2c-0.9,0-1.8-0.2-2.7-0.7c-0.3,0.2-0.6,0.4-0.9,0.6
				c1.2,0.6,2.4,0.9,3.6,0.9c4.5,0,7.6-7.1,10.9-14.7c3.1-7,6.2-14.2,10.2-14.2c4,0,7.1,7.2,10.2,14.2c3.3,7.6,6.4,14.6,10.9,14.6
				c4.3,0,5.4-7.6,9.9-13.7c4.3-5.7,19.6-4.9,24.5-5.1L114.3,20.2z"/>
		</g>
		<g>
			<path class="st2" d="M114.3,20.2c-5.5,0.1-21.3-0.9-25.2,5.6C85.3,32,83.7,39,80,39c-3.9,0-7.1-7.2-10.1-14.1
				c-3.4-7.6-6.5-14.7-11.1-14.7c-4.5,0-7.7,7.1-11,14.7c-3,7-6.2,14.2-10.2,14.2c-0.9,0-1.8-0.2-2.7-0.7c-0.3,0.2-0.6,0.4-0.9,0.6
				c1.2,0.6,2.4,0.9,3.6,0.9c4.5,0,7.6-7.1,10.9-14.7c3.1-7,6.2-14.2,10.2-14.2c4,0,7.1,7.2,10.2,14.2c3.3,7.6,6.4,14.6,10.9,14.6
				c4.3,0,5.4-7.6,9.9-13.7c4.3-5.7,19.6-4.9,24.5-5.1L114.3,20.2z"/>
		</g>
		<g>
			<path class="st2" d="M114.3,20.2c-5.5,0.1-21.3-0.9-25.2,5.6C85.3,32,83.7,39,80,39c-3.9,0-7.1-7.2-10.1-14.1
				c-3.4-7.6-6.5-14.7-11.1-14.7c-4.5,0-7.7,7.1-11,14.7c-3,7-6.2,14.2-10.2,14.2c-0.9,0-1.8-0.2-2.7-0.7c-0.3,0.2-0.6,0.4-0.9,0.6
				c1.2,0.6,2.4,0.9,3.6,0.9c4.5,0,7.6-7.1,10.9-14.7c3.1-7,6.2-14.2,10.2-14.2c4,0,7.1,7.2,10.2,14.2c3.3,7.6,6.4,14.6,10.9,14.6
				c4.3,0,5.4-7.6,9.9-13.7c4.3-5.7,19.6-4.9,24.5-5.1L114.3,20.2z"/>
		</g>
		<g>
			
				<linearGradient id="SVGID_2_" gradientUnits="userSpaceOnUse" x1="35.5847" y1="33.0669" x2="124.264" y2="32.9249" gradientTransform="matrix(1 0 0 1 -7 -8)">
				<stop  offset="1.422276e-02" style="stop-color:#FCB922"/>
				<stop  offset="7.806490e-02" style="stop-color:#F98D4A"/>
				<stop  offset="0.1083" style="stop-color:#F77461"/>
				<stop  offset="0.1405" style="stop-color:#F56173"/>
				<stop  offset="0.1737" style="stop-color:#F4567E"/>
				<stop  offset="0.2091" style="stop-color:#F45281"/>
				<stop  offset="0.3798" style="stop-color:#C00F74"/>
				<stop  offset="0.8086" style="stop-color:#680086"/>
			</linearGradient>
			<path class="st3" d="M114.3,20.2c-5.5,0.1-21.3-0.9-25.2,5.6C85.3,32,83.7,39,80,39c-3.9,0-7.1-7.2-10.1-14.1
				c-3.4-7.6-6.5-14.7-11.1-14.7c-4.5,0-7.7,7.1-11,14.7c-3,7-6.2,14.2-10.2,14.2c-0.9,0-1.8-0.2-2.7-0.7c-0.3,0.2-0.6,0.4-0.9,0.6
				c1.2,0.6,2.4,0.9,3.6,0.9c4.5,0,7.6-7.1,10.9-14.7c3.1-7,6.2-14.2,10.2-14.2c4,0,7.1,7.2,10.2,14.2c3.3,7.6,6.4,14.6,10.9,14.6
				c4.3,0,5.4-7.6,9.9-13.7c4.3-5.7,19.6-4.9,24.5-5.1L114.3,20.2z"/>
		</g>
	</g>
	<path class="st4" d="M102.4,6.3c0-0.4,0.2-0.8,0.7-1c0.8-0.5,2-0.4,2.6,0.2l15.8,14.4c0.3,0.3,0.4,0.6,0.4,0.9
		c0,0.3-0.1,0.6-0.4,0.9l-15.8,14.4c-0.7,0.6-1.8,0.7-2.6,0.2c-0.4-0.3-0.7-1.6-0.7-2l0-1.5l0-23L102.4,6.3z"/>
</g>
</svg>
